<svg xmlns="http://www.w3.org/2000/svg" height="24" viewBox="0 0 24 24" width="24">
  <path d="M12 2C6.49 2 2 6.49 2 12s4.49 10 10 10c1.38 0 2.5-1.12 2.5-2.5c0-.61-.23-1.21-.64-1.67c-.08-.09-.13-.21-.13-.33c0-.28.22-.5.5-.5H16c3.31 0 6-2.69 6-6c0-4.96-4.49-9-10-9zm-5.5 10c-.83 0-1.5-.67-1.5-1.5S5.67 9 6.5 9S8 9.67 8 10.5S7.33 12 6.5 12zm3-4C8.67 8 8 7.33 8 6.5S8.67 5 9.5 5s1.5.67 1.5 1.5S10.33 8 9.5 8zm5 0c-.83 0-1.5-.67-1.5-1.5S13.67 5 14.5 5s1.5.67 1.5 1.5S15.33 8 14.5 8zm3 4c-.83 0-1.5-.67-1.5-1.5S16.67 9 17.5 9s1.5.67 1.5 1.5s-.67 1.5-1.5 1.5z"/>
</svg>
