<svg xmlns="http://www.w3.org/2000/svg" height="24" viewBox="0 0 24 24" width="24">
  <path d="M4.5 9.5C5.33 9.5 6 10.17 6 11S5.33 12.5 4.5 12.5 3 11.83 3 11 3.67 9.5 4.5 9.5zm0-3C5.33 6.5 6 7.17 6 8S5.33 9.5 4.5 9.5 3 8.83 3 8 3.67 6.5 4.5 6.5zm0 6c.83 0 1.5.67 1.5 1.5S5.33 15.5 4.5 15.5 3 14.83 3 14s.67-1.5 1.5-1.5zm12-6c.83 0 1.5.67 1.5 1.5S17.33 9.5 16.5 9.5 15 8.83 15 8s.67-1.5 1.5-1.5zm0-3c.83 0 1.5.67 1.5 1.5S17.33 6.5 16.5 6.5 15 5.83 15 5s.67-1.5 1.5-1.5zm0 6c.83 0 1.5.67 1.5 1.5S17.33 15.5 16.5 15.5 15 14.83 15 14s.67-1.5 1.5-1.5zm-7.5 3c.83 0 1.5.67 1.5 1.5S10.33 15.5 9.5 15.5 8 14.83 8 14s.67-1.5 1.5-1.5zm0-3c.83 0 1.5.67 1.5 1.5S10.33 12.5 9.5 12.5 8 11.83 8 11 8.67 9.5 9.5 9.5zm0-3c.83 0 1.5.67 1.5 1.5S10.33 9.5 9.5 9.5 8 8.83 8 8 8.67 6.5 9.5 6.5zm0-3c.83 0 1.5.67 1.5 1.5S10.33 6.5 9.5 6.5 8 5.83 8 5 8.67 3.5 9.5 3.5z"/>
</svg>
