<svg xmlns="http://www.w3.org/2000/svg" height="24" viewBox="0 0 24 24" width="24">
  <path d="M2 18c0 1.1.9 2 2 2h16c1.1 0 2-.9 2-2v-1.5c0-.83-.67-1.5-1.5-1.5S19 15.67 19 16.5V18H5v-1.5c0-.83-.67-1.5-1.5-1.5S2 15.67 2 16.5V18zm1.5-7c.83 0 1.5.67 1.5 1.5S4.33 14 3.5 14 2 13.33 2 12.5 2.67 11 3.5 11zm5 1c1.1 0 2 .9 2 2s-.9 2-2 2-2-.9-2-2 .9-2 2-2zm7-1c.83 0 1.5.67 1.5 1.5S15.33 14 14.5 14 13 13.33 13 12.5 13.67 11 14.5 11zm5 0c.83 0 1.5.67 1.5 1.5s-.67 1.5-1.5 1.5-1.5-.67-1.5-1.5.67-1.5 1.5-1.5zm-9.5 5c.5 0 .98-.09 1.43-.25l.03.03c.55.55 1.31.88 2.16.88 1.66 0 3-1.34 3-3 0-.85-.33-1.61-.88-2.16l.03-.03c.16.45.25.93.25 1.43 0 2.21-1.79 4-4 4s-4-1.79-4-4c0-.5.09-.98.25-1.43l.03.03C9.1 15.92 9.5 16 10 16z"/>
</svg>
