<svg xmlns="http://www.w3.org/2000/svg" height="24" viewBox="0 0 24 24" width="24">
  <path d="M13.5 2c-1.39 0-2.64.8-3.24 2H6c-.55 0-1 .45-1 1s.45 1 1 1h4.26c.05.35.14.68.26 1H6c-.55 0-1 .45-1 1s.45 1 1 1h4.93c.05.35.12.68.22 1H6c-.55 0-1 .45-1 1v2c0 .55.45 1 1 1h4.64c.53 2 2.37 3.5 4.36 3.5s3.83-1.5 4.36-3.5H22c.55 0 1-.45 1-1v-2c0-.55-.45-1-1-1h-5.14c.1-.32.17-.65.22-1H22c.55 0 1-.45 1-1s-.45-1-1-1h-4.93c.12-.32.21-.65.26-1H22c.55 0 1-.45 1-1s-.45-1-1-1h-4.26C16.14 2.8 14.89 2 13.5 2zM13.5 6c-1.1 0-2 .9-2 2s.9 2 2 2 2-.9 2-2-.9-2-2-2zm0 7c-1.38 0-2.5 1.12-2.5 2.5S12.12 18 13.5 18s2.5-1.12 2.5-2.5S14.88 13 13.5 13z"/>
</svg>
