<svg xmlns="http://www.w3.org/2000/svg" height="24" viewBox="0 0 24 24" width="24">
  <path d="M13.5 5.5c1.1 0 2-.9 2-2s-.9-2-2-2-2 .9-2 2 .9 2 2 2zM9.75 8.9L8 9.5l1.75 5.5L12 14l.91 2.09L12 17c-2.21 0-4-1.79-4-4 0-.36.05-.71.14-1.05l1.41-1.41c-.25.08-.51.13-.78.13-.83 0-1.5-.67-1.5-1.5S6.67 9 7.5 9c.27 0 .53.05.78.13L9.9 7.96C9.05 7.69 8.5 6.94 8.5 6.09V5c0-.83.67-1.5 1.5-1.5S11.5 4.17 11.5 5v.09c0 .85-.55 1.6-1.34 1.87l1.36 1.36c.03-.02.07-.03.1-.05.36-.23.78-.36 1.24-.36.99 0 1.85.55 2.29 1.35l2.95 2.95c.29.29.29.77 0 1.06-.29.29-.77.29-1.06 0l-2.95-2.95c-.5-.86-1.4-1.44-2.43-1.44-.31 0-.6.05-.88.14L9.75 8.9z"/>
</svg>
