<svg xmlns="http://www.w3.org/2000/svg" height="24" viewBox="0 0 24 24" width="24">
  <path d="M17 16.99c-1.35 0-2.2.42-2.95.8-.65.33-1.18.6-2.05.6-.9 0-1.4-.25-2.05-.6-.75-.38-1.57-.8-2.95-.8s-2.2.42-2.95.8c-.65.33-1.17.6-2.05.6v2c.9 0 1.41-.25 2.05-.6.75-.38 1.57-.8 2.95-.8s2.2.42 2.95.8c.65.33 1.18.6 2.05.6.9 0 1.41-.25 2.05-.6.75-.38 1.58-.8 2.95-.8s2.2.42 2.95.8c.65.33 1.18.6 2.05.6v-2c-.9 0-1.41-.25-2.05-.6-.75-.38-1.57-.8-2.95-.8zm0-2c-1.35 0-2.2.42-2.95.8-.65.33-1.18.6-2.05.6-.9 0-1.4-.25-2.05-.6-.75-.38-1.57-.8-2.95-.8s-2.2.42-2.95.8c-.65.33-1.17.6-2.05.6v2c.9 0 1.41-.25 2.05-.6.75-.38 1.57-.8 2.95-.8s2.2.42 2.95.8c.65.33 1.18.6 2.05.6.9 0 1.41-.25 2.05-.6.75-.38 1.58-.8 2.95-.8s2.2.42 2.95.8c.65.33 1.18.6 2.05.6v-2c-.9 0-1.41-.25-2.05-.6-.75-.38-1.57-.8-2.95-.8z"/>
</svg>
